<svg width="121" height="33" viewBox="0 0 121 33" fill="none" xmlns="http://www.w3.org/2000/svg">
<path d="M37.148 21.7598C37.028 21.7598 36.926 21.7178 36.842 21.6338C36.758 21.5498 36.716 21.4478 36.716 21.3278V17.2598L32.468 9.73576C32.456 9.71177 32.444 9.68177 32.432 9.64576C32.42 9.60976 32.414 9.57376 32.414 9.53777C32.414 9.42977 32.45 9.33977 32.522 9.26777C32.594 9.19577 32.678 9.15976 32.774 9.15976H34.376C34.52 9.15976 34.634 9.19577 34.718 9.26777C34.814 9.33977 34.88 9.41777 34.916 9.50176L37.976 14.7398L41.018 9.50176C41.066 9.41777 41.132 9.33977 41.216 9.26777C41.312 9.19577 41.432 9.15976 41.576 9.15976H43.16C43.268 9.15976 43.358 9.19577 43.43 9.26777C43.502 9.33977 43.538 9.42977 43.538 9.53777C43.538 9.57376 43.532 9.60976 43.52 9.64576C43.52 9.68177 43.508 9.71177 43.484 9.73576L39.236 17.2598V21.3278C39.236 21.4478 39.194 21.5498 39.11 21.6338C39.026 21.7178 38.918 21.7598 38.786 21.7598H37.148ZM47.7343 21.9398C46.7743 21.9398 45.9643 21.7718 45.3043 21.4358C44.6563 21.0998 44.1583 20.6258 43.8103 20.0138C43.4743 19.4018 43.2823 18.6878 43.2343 17.8718C43.2223 17.6558 43.2163 17.3918 43.2163 17.0798C43.2163 16.7678 43.2223 16.5038 43.2343 16.2878C43.2823 15.4598 43.4803 14.7458 43.8283 14.1458C44.1883 13.5338 44.6923 13.0598 45.3403 12.7238C46.0003 12.3878 46.7983 12.2198 47.7343 12.2198C48.6703 12.2198 49.4623 12.3878 50.1103 12.7238C50.7703 13.0598 51.2743 13.5338 51.6223 14.1458C51.9823 14.7458 52.1863 15.4598 52.2343 16.2878C52.2463 16.5038 52.2523 16.7678 52.2523 17.0798C52.2523 17.3918 52.2463 17.6558 52.2343 17.8718C52.1863 18.6878 51.9883 19.4018 51.6403 20.0138C51.3043 20.6258 50.8063 21.0998 50.1463 21.4358C49.4983 21.7718 48.6943 21.9398 47.7343 21.9398ZM47.7343 20.1578C48.3703 20.1578 48.8623 19.9598 49.2103 19.5638C49.5583 19.1558 49.7503 18.5618 49.7863 17.7818C49.7983 17.6018 49.8043 17.3678 49.8043 17.0798C49.8043 16.7918 49.7983 16.5578 49.7863 16.3778C49.7503 15.6098 49.5583 15.0218 49.2103 14.6138C48.8623 14.2058 48.3703 14.0018 47.7343 14.0018C47.0983 14.0018 46.6063 14.2058 46.2583 14.6138C45.9103 15.0218 45.7183 15.6098 45.6823 16.3778C45.6703 16.5578 45.6643 16.7918 45.6643 17.0798C45.6643 17.3678 45.6703 17.6018 45.6823 17.7818C45.7183 18.5618 45.9103 19.1558 46.2583 19.5638C46.6063 19.9598 47.0983 20.1578 47.7343 20.1578ZM57.7206 21.9398C56.9886 21.9398 56.3526 21.7778 55.8126 21.4538C55.2846 21.1178 54.8766 20.6498 54.5886 20.0498C54.3006 19.4378 54.1566 18.7178 54.1566 17.8898V12.8318C54.1566 12.7118 54.1986 12.6098 54.2826 12.5258C54.3666 12.4418 54.4686 12.3998 54.5886 12.3998H56.1726C56.3046 12.3998 56.4066 12.4418 56.4786 12.5258C56.5626 12.6098 56.6046 12.7118 56.6046 12.8318V17.7818C56.6046 19.2698 57.2586 20.0138 58.5666 20.0138C59.1906 20.0138 59.6826 19.8158 60.0426 19.4198C60.4146 19.0238 60.6006 18.4778 60.6006 17.7818V12.8318C60.6006 12.7118 60.6426 12.6098 60.7266 12.5258C60.8106 12.4418 60.9126 12.3998 61.0326 12.3998H62.6166C62.7366 12.3998 62.8386 12.4418 62.9226 12.5258C63.0066 12.6098 63.0486 12.7118 63.0486 12.8318V21.3278C63.0486 21.4478 63.0066 21.5498 62.9226 21.6338C62.8386 21.7178 62.7366 21.7598 62.6166 21.7598H61.1586C61.0266 21.7598 60.9186 21.7178 60.8346 21.6338C60.7626 21.5498 60.7266 21.4478 60.7266 21.3278V20.5898C60.4026 21.0098 60.0006 21.3398 59.5206 21.5798C59.0406 21.8198 58.4406 21.9398 57.7206 21.9398ZM65.8583 21.7598C65.7383 21.7598 65.6363 21.7178 65.5523 21.6338C65.4683 21.5498 65.4263 21.4478 65.4263 21.3278V12.8498C65.4263 12.7178 65.4683 12.6098 65.5523 12.5258C65.6363 12.4418 65.7383 12.3998 65.8583 12.3998H67.3163C67.4363 12.3998 67.5383 12.4418 67.6223 12.5258C67.7183 12.6098 67.7663 12.7178 67.7663 12.8498V13.5878C68.0423 13.2038 68.3963 12.9098 68.8283 12.7058C69.2723 12.5018 69.7823 12.3998 70.3583 12.3998H71.0963C71.2283 12.3998 71.3303 12.4418 71.4023 12.5258C71.4863 12.6098 71.5283 12.7118 71.5283 12.8318V14.1278C71.5283 14.2478 71.4863 14.3498 71.4023 14.4338C71.3303 14.5178 71.2283 14.5598 71.0963 14.5598H69.6923C69.1163 14.5598 68.6663 14.7218 68.3423 15.0458C68.0303 15.3698 67.8743 15.8138 67.8743 16.3778V21.3278C67.8743 21.4478 67.8323 21.5498 67.7483 21.6338C67.6643 21.7178 67.5563 21.7598 67.4243 21.7598H65.8583Z" fill="#1341EC"/>
<path d="M75.315 21.7598C75.195 21.7598 75.093 21.7178 75.009 21.6338C74.925 21.5498 74.883 21.4478 74.883 21.3278V11.3738H71.553C71.433 11.3738 71.331 11.3318 71.247 11.2478C71.163 11.1638 71.121 11.0618 71.121 10.9418V9.60977C71.121 9.47776 71.163 9.36976 71.247 9.28577C71.331 9.20176 71.433 9.15976 71.553 9.15976H80.733C80.865 9.15976 80.973 9.20176 81.057 9.28577C81.141 9.36976 81.183 9.47776 81.183 9.60977V10.9418C81.183 11.0618 81.141 11.1638 81.057 11.2478C80.973 11.3318 80.865 11.3738 80.733 11.3738H77.421V21.3278C77.421 21.4478 77.379 21.5498 77.295 21.6338C77.211 21.7178 77.103 21.7598 76.971 21.7598H75.315ZM82.0302 21.7598C81.9102 21.7598 81.8082 21.7178 81.7242 21.6338C81.6402 21.5498 81.5982 21.4478 81.5982 21.3278V12.8498C81.5982 12.7178 81.6402 12.6098 81.7242 12.5258C81.8082 12.4418 81.9102 12.3998 82.0302 12.3998H83.4882C83.6082 12.3998 83.7102 12.4418 83.7942 12.5258C83.8902 12.6098 83.9382 12.7178 83.9382 12.8498V13.5878C84.2142 13.2038 84.5682 12.9098 85.0002 12.7058C85.4442 12.5018 85.9542 12.3998 86.5302 12.3998H87.2682C87.4002 12.3998 87.5022 12.4418 87.5742 12.5258C87.6582 12.6098 87.7002 12.7118 87.7002 12.8318V14.1278C87.7002 14.2478 87.6582 14.3498 87.5742 14.4338C87.5022 14.5178 87.4002 14.5598 87.2682 14.5598H85.8642C85.2882 14.5598 84.8382 14.7218 84.5142 15.0458C84.2022 15.3698 84.0462 15.8138 84.0462 16.3778V21.3278C84.0462 21.4478 84.0042 21.5498 83.9202 21.6338C83.8362 21.7178 83.7282 21.7598 83.5962 21.7598H82.0302ZM91.6814 21.9398C91.0574 21.9398 90.4934 21.8198 89.9894 21.5798C89.4854 21.3278 89.0834 20.9978 88.7834 20.5898C88.4954 20.1698 88.3514 19.7018 88.3514 19.1858C88.3514 18.3458 88.6874 17.6798 89.3594 17.1878C90.0434 16.6838 90.9434 16.3478 92.0594 16.1798L94.5254 15.8198V15.4418C94.5254 14.9378 94.3994 14.5478 94.1474 14.2718C93.8954 13.9958 93.4634 13.8578 92.8514 13.8578C92.4194 13.8578 92.0654 13.9478 91.7894 14.1278C91.5254 14.2958 91.3274 14.5238 91.1954 14.8118C91.0994 14.9678 90.9614 15.0458 90.7814 15.0458H89.3594C89.2274 15.0458 89.1254 15.0098 89.0534 14.9378C88.9934 14.8658 88.9634 14.7698 88.9634 14.6498C88.9754 14.4578 89.0534 14.2238 89.1974 13.9478C89.3414 13.6718 89.5694 13.4078 89.8814 13.1558C90.1934 12.8918 90.5954 12.6698 91.0874 12.4898C91.5794 12.3098 92.1734 12.2198 92.8694 12.2198C93.6254 12.2198 94.2614 12.3158 94.7774 12.5078C95.3054 12.6878 95.7254 12.9338 96.0374 13.2458C96.3494 13.5578 96.5774 13.9238 96.7214 14.3438C96.8654 14.7638 96.9374 15.2078 96.9374 15.6758V21.3278C96.9374 21.4478 96.8954 21.5498 96.8114 21.6338C96.7274 21.7178 96.6254 21.7598 96.5054 21.7598H95.0474C94.9154 21.7598 94.8074 21.7178 94.7234 21.6338C94.6514 21.5498 94.6154 21.4478 94.6154 21.3278V20.6258C94.4594 20.8538 94.2494 21.0698 93.9854 21.2738C93.7214 21.4658 93.3974 21.6278 93.0134 21.7598C92.6414 21.8798 92.1974 21.9398 91.6814 21.9398ZM92.2934 20.2298C92.7134 20.2298 93.0914 20.1398 93.4274 19.9598C93.7754 19.7798 94.0454 19.5038 94.2374 19.1318C94.4414 18.7478 94.5434 18.2678 94.5434 17.6918V17.3138L92.7434 17.6018C92.0354 17.7098 91.5074 17.8838 91.1594 18.1238C90.8114 18.3638 90.6374 18.6578 90.6374 19.0058C90.6374 19.2698 90.7154 19.4978 90.8714 19.6898C91.0394 19.8698 91.2494 20.0078 91.5014 20.1038C91.7534 20.1878 92.0174 20.2298 92.2934 20.2298ZM99.6786 21.7598C99.5586 21.7598 99.4566 21.7178 99.3726 21.6338C99.2886 21.5498 99.2466 21.4478 99.2466 21.3278V12.8318C99.2466 12.7118 99.2886 12.6098 99.3726 12.5258C99.4566 12.4418 99.5586 12.3998 99.6786 12.3998H101.155C101.275 12.3998 101.377 12.4418 101.461 12.5258C101.545 12.6098 101.587 12.7118 101.587 12.8318V13.5698C101.899 13.1858 102.295 12.8678 102.775 12.6158C103.267 12.3518 103.873 12.2198 104.593 12.2198C105.325 12.2198 105.961 12.3878 106.501 12.7238C107.041 13.0478 107.455 13.5098 107.743 14.1098C108.043 14.7098 108.193 15.4298 108.193 16.2698V21.3278C108.193 21.4478 108.151 21.5498 108.067 21.6338C107.983 21.7178 107.881 21.7598 107.761 21.7598H106.177C106.057 21.7598 105.955 21.7178 105.871 21.6338C105.787 21.5498 105.745 21.4478 105.745 21.3278V16.3778C105.745 15.6818 105.571 15.1358 105.223 14.7398C104.887 14.3438 104.395 14.1458 103.747 14.1458C103.123 14.1458 102.625 14.3438 102.253 14.7398C101.881 15.1358 101.695 15.6818 101.695 16.3778V21.3278C101.695 21.4478 101.653 21.5498 101.569 21.6338C101.485 21.7178 101.383 21.7598 101.263 21.7598H99.6786ZM114.025 21.9398C113.305 21.9398 112.687 21.8558 112.171 21.6878C111.667 21.5198 111.253 21.3098 110.929 21.0578C110.605 20.8058 110.365 20.5538 110.209 20.3018C110.053 20.0498 109.969 19.8398 109.957 19.6718C109.945 19.5398 109.981 19.4378 110.065 19.3658C110.161 19.2818 110.263 19.2398 110.371 19.2398H111.793C111.841 19.2398 111.883 19.2458 111.919 19.2578C111.955 19.2698 112.003 19.3058 112.063 19.3658C112.219 19.4978 112.381 19.6358 112.549 19.7798C112.729 19.9238 112.939 20.0498 113.179 20.1578C113.419 20.2538 113.719 20.3018 114.079 20.3018C114.547 20.3018 114.937 20.2118 115.249 20.0318C115.573 19.8398 115.735 19.5698 115.735 19.2218C115.735 18.9698 115.663 18.7658 115.519 18.6098C115.387 18.4538 115.135 18.3158 114.763 18.1958C114.391 18.0638 113.863 17.9258 113.179 17.7818C112.507 17.6258 111.949 17.4278 111.505 17.1878C111.061 16.9478 110.731 16.6478 110.515 16.2878C110.299 15.9278 110.191 15.5078 110.191 15.0278C110.191 14.5598 110.329 14.1158 110.605 13.6958C110.893 13.2638 111.313 12.9098 111.865 12.6338C112.429 12.3578 113.125 12.2198 113.953 12.2198C114.601 12.2198 115.165 12.3038 115.645 12.4718C116.125 12.6278 116.521 12.8258 116.833 13.0658C117.157 13.3058 117.403 13.5518 117.571 13.8038C117.739 14.0438 117.829 14.2538 117.841 14.4338C117.853 14.5658 117.817 14.6738 117.733 14.7578C117.649 14.8298 117.553 14.8658 117.445 14.8658H116.113C116.053 14.8658 115.999 14.8538 115.951 14.8298C115.903 14.8058 115.855 14.7758 115.807 14.7398C115.675 14.6198 115.531 14.4938 115.375 14.3618C115.219 14.2298 115.027 14.1158 114.799 14.0198C114.583 13.9118 114.295 13.8578 113.935 13.8578C113.479 13.8578 113.131 13.9598 112.891 14.1638C112.651 14.3558 112.531 14.6018 112.531 14.9018C112.531 15.1058 112.585 15.2858 112.693 15.4418C112.813 15.5858 113.047 15.7238 113.395 15.8558C113.743 15.9878 114.271 16.1258 114.979 16.2698C115.783 16.4138 116.419 16.6298 116.887 16.9178C117.367 17.1938 117.703 17.5178 117.895 17.8898C118.099 18.2498 118.201 18.6518 118.201 19.0958C118.201 19.6358 118.039 20.1218 117.715 20.5538C117.403 20.9858 116.935 21.3278 116.311 21.5798C115.699 21.8198 114.937 21.9398 114.025 21.9398Z" fill="#1C1C1C"/>
<path d="M3.77845 25.8594H9.39649V29.0677H3.77845V25.8594ZM3.77845 25.8594V3.00988C3.77845 1.38399 11.0006 0.759766 15 0.759766C18.9486 0.759766 26.2215 1.38399 26.2215 3.00988V25.8594M3.77845 25.8594H26.2215M26.2215 25.8594H20.6035V29.0677H26.2215V25.8594ZM2.87115 5.47775H3.74216V11.241C3.2737 11.2333 2.82736 11.0403 2.50086 10.7043C2.17436 10.3683 1.99431 9.9166 2.00014 9.44812V6.36328C2.00011 6.13092 2.09141 5.90785 2.25435 5.74219C2.41729 5.57654 2.63882 5.48156 2.87115 5.47775ZM27.1288 5.47775H26.2578V11.241C26.7263 11.2333 27.1726 11.0403 27.4991 10.7043C27.8256 10.3683 28.0057 9.9166 27.9999 9.44812V6.36328C27.9999 6.13092 27.9086 5.90785 27.7456 5.74219C27.5827 5.57654 27.3612 5.48156 27.1288 5.47775ZM15 3.83008C18.9631 3.83008 21.9149 4.12768 23.8553 4.72287C23.9946 4.77154 24.1158 4.86152 24.2027 4.98083C24.2896 5.10014 24.3381 5.2431 24.3416 5.39065V17.73C24.3416 17.9225 24.2651 18.1071 24.129 18.2432C23.9929 18.3794 23.8083 18.4558 23.6158 18.4558H6.39149C6.19899 18.4558 6.01436 18.3794 5.87824 18.2432C5.74212 18.1071 5.66565 17.9225 5.66565 17.73V5.39065C5.6692 5.2431 5.71765 5.10014 5.80454 4.98083C5.89143 4.86152 6.01262 4.77154 6.15196 4.72287C8.08755 4.12768 11.0369 3.83008 15 3.83008ZM7.44397 20.3575C7.92523 20.3575 8.38678 20.5487 8.72709 20.889C9.06739 21.2293 9.25858 21.6909 9.25858 22.1722C9.25858 22.6534 9.06739 23.115 8.72709 23.4553C8.38678 23.7956 7.92523 23.9868 7.44397 23.9868C6.96973 23.9791 6.51785 23.7839 6.18727 23.4438C5.85669 23.1037 5.67434 22.6464 5.68017 22.1722C5.67434 21.6979 5.85669 21.2407 6.18727 20.9005C6.51785 20.5604 6.96973 20.3652 7.44397 20.3575ZM22.5923 20.3575C23.0736 20.3575 23.5351 20.5487 23.8755 20.889C24.2158 21.2293 24.4069 21.6909 24.4069 22.1722C24.4069 22.6534 24.2158 23.115 23.8755 23.4553C23.5351 23.7956 23.0736 23.9868 22.5923 23.9868C22.3557 23.9858 22.1215 23.938 21.9034 23.8461C21.6853 23.7543 21.4875 23.6201 21.3215 23.4514C21.1555 23.2827 21.0246 23.0828 20.9362 22.8633C20.8479 22.6437 20.8039 22.4088 20.8068 22.1722C20.8039 21.9355 20.8479 21.7006 20.9362 21.4811C21.0246 21.2615 21.1555 21.0616 21.3215 20.8929C21.4875 20.7242 21.6853 20.5901 21.9034 20.4982C22.1215 20.4063 22.3557 20.3585 22.5923 20.3575Z" stroke="#1C1C1C" stroke-width="0.725844" stroke-linecap="round" stroke-linejoin="round"/>
</svg>
